<?xml version="1.0" encoding="utf-8"?>
<!-- Generator: Adobe Illustrator 16.0.0, SVG Export Plug-In . SVG Version: 6.00 Build 0)  -->
<!DOCTYPE svg PUBLIC "-//W3C//DTD SVG 1.1 Basic//EN" "http://www.w3.org/Graphics/SVG/1.1/DTD/svg11-basic.dtd">
<svg version="1.1" baseProfile="basic" id="Layer_1"
	 xmlns="http://www.w3.org/2000/svg" xmlns:xlink="http://www.w3.org/1999/xlink" x="0px" y="0px" width="388.49px"
	 height="313.484px" viewBox="85.545 126.234 388.49 313.484" xml:space="preserve">
<path fill="#E6007E" d="M107.12,214.017h21.576v-68.55h21.577v-19.233H85.545v19.233h21.575V214.017z M165.314,214.017l4.315-13.068
	h27l4.069,13.068h22.564l-31.932-87.783h-16.645l-31.933,87.783H165.314z M183.561,159.523l7.397,23.425H175.67L183.561,159.523z
	 M249.769,181.345h7.274l15.534,32.672h25.029L278.619,177.4c6.905-3.453,14.302-10.973,14.302-22.933
	c0-14.424-10.48-28.233-29.959-28.233h-34.769v87.783h21.576V181.345z M249.769,145.59h12.206c5.918,0,9.37,4.315,9.37,8.877
	c0,4.562-3.452,8.877-9.37,8.877h-12.206V145.59z M326.208,126.234h-21.576v87.783h21.576V126.234z M361.714,180.111h32.549v-19.233
	h-32.549v-15.412h38.1v-19.233H340.14v87.783h21.574V180.111z M416.087,214.017l4.314-13.068h27.002l4.066,13.068h22.564
	l-31.934-87.783h-16.645l-31.932,87.783H416.087z M434.333,159.523l7.396,23.425h-15.287L434.333,159.523z M131.656,389.745
	l-19.727-38.713H90.723v87.783h21.576v-42.042l12.452,21.699h13.809l12.452-21.699v42.042h21.577v-87.783h-21.206L131.656,389.745z
	 M210.317,351.032l-31.932,87.783h22.562l4.315-13.068h27.001l4.068,13.068h22.564l-31.933-87.783H210.317z M211.302,407.746
	l7.891-23.426l7.397,23.426H211.302z M264.688,438.815h21.575v-87.783h-21.575V438.815z M336.197,385.43l-10.605-1.479
	c-3.082-0.37-4.932-1.479-6.041-2.589c-1.355-1.356-1.725-2.959-1.725-4.069c0-3.821,3.082-8.137,10.602-8.137
	c3.824,0,11.098-0.37,16.646,5.178l13.561-13.562c-7.521-7.521-17.014-10.48-29.59-10.48c-19.973,0-32.057,11.713-32.057,27.741
	c0,7.521,1.973,13.438,6.043,17.63c3.943,4.07,9.861,6.658,17.629,7.768l10.604,1.479c2.836,0.37,4.688,1.233,5.795,2.343
	c1.234,1.357,1.729,3.082,1.729,5.178c0,5.057-4.068,7.891-12.576,7.891c-7.029,0-15.043-1.602-19.604-6.163l-13.811,13.809
	c8.877,9.123,19.852,11.59,33.289,11.59c18.494,0,33.904-9.74,33.906-27.62c0-8.137-1.85-14.672-6.533-19.233
	C349.757,389.004,344.087,386.538,336.197,385.43z M149.738,307.275h-33.782l33.782-51.783v-16.768h-58.07v19.233h32.178
	l-33.658,51.781v16.769h59.55V307.275z M218.905,257.957v-19.233h-59.673v87.782h59.673v-19.232h-38.098v-15.412h32.549v-19.232
	h-32.549v-14.672H218.905z M275.618,326.506h25.028l-18.986-36.617c6.905-3.451,14.302-10.972,14.302-22.932
	c0-14.424-10.48-28.233-29.96-28.233h-34.768v87.783h21.575v-32.672h7.274L275.618,326.506L275.618,326.506z M265.015,275.835
	h-12.206v-17.754h12.206c5.918,0,9.37,4.315,9.37,8.877S270.933,275.835,265.015,275.835z M363.771,247.847
	c-6.41-6.41-13.809-9.863-24.533-9.863c-10.727,0-18.125,3.453-24.535,9.863c-9.248,9.248-8.877,21.577-8.877,34.769
	s-0.371,25.522,8.877,34.768c6.41,6.41,13.807,9.863,24.535,9.863c10.725,0,18.123-3.453,24.533-9.863
	c9.246-9.245,8.877-21.575,8.877-34.768C372.648,269.423,373.017,257.094,363.771,247.847z M347.867,304.068
	c-1.604,2.097-4.686,3.945-8.631,3.945s-7.027-1.848-8.631-3.945c-1.973-2.588-3.205-5.424-3.205-21.452s1.232-18.987,3.205-21.576
	c1.604-2.095,4.686-3.821,8.631-3.821s7.027,1.725,8.631,3.821c1.973,2.588,3.205,5.547,3.205,21.576
	C351.072,298.645,349.839,301.48,347.867,304.068z M408.126,354.292h-28.479l28.479,42.711l-28.479,42.715h28.479l28.475-42.715
	L408.126,354.292z M414.13,354.292l28.477,42.711l-28.477,42.715h28.477l28.477-42.715l-28.477-42.711H414.13z M463.582,259.382
	v-19.235h-20.117v-17.731h-20.264v17.731h-19.293v87.787h59.674v-19.235h-38.098v-15.411h32.549v-19.233h-32.549v-14.672H463.582z"
	/>
</svg>
