<?xml version="1.0" encoding="utf-8"?>
<!-- Generator: Adobe Illustrator 15.0.0, SVG Export Plug-In . SVG Version: 6.00 Build 0)  -->
<!DOCTYPE svg PUBLIC "-//W3C//DTD SVG 1.1//EN" "http://www.w3.org/Graphics/SVG/1.1/DTD/svg11.dtd">
<svg version="1.1" id="Layer_1" xmlns="http://www.w3.org/2000/svg" xmlns:xlink="http://www.w3.org/1999/xlink" x="0px" y="0px"
	 width="566.929px" height="566.93px" viewBox="0 0 566.929 566.93" enable-background="new 0 0 566.929 566.93"
	 xml:space="preserve">
<path d="M184.971-819.222v-5.349V-819.222z"/>
<rect x="0" fill="#FFED00" width="566.93" height="566.93"/>
<path d="M147.931,450.48h-1.896H147.931z"/>
<g>
	<path fill="#E6007E" d="M128.696,145.467v68.55H107.12v-68.55H85.545v-19.233h64.728v19.233H128.696z"/>
	<path fill="#E6007E" d="M200.698,214.017l-4.069-13.068h-27l-4.315,13.068h-22.562l31.933-87.783h16.645l31.932,87.783H200.698z
		 M183.561,159.523l-7.891,23.425h15.288L183.561,159.523z"/>
	<path fill="#E6007E" d="M272.577,214.017l-15.534-32.672h-7.274v32.672h-21.576v-87.783h34.769
		c19.479,0,29.959,13.809,29.959,28.233c0,11.96-7.397,19.48-14.302,22.933l18.987,36.617H272.577z M261.975,145.59h-12.206v17.754
		h12.206c5.918,0,9.37-4.315,9.37-8.877S267.893,145.59,261.975,145.59z"/>
	<path fill="#E6007E" d="M304.633,214.017v-87.783h21.576v87.783H304.633z"/>
	<path fill="#E6007E" d="M361.715,145.467v15.411h32.549v19.233h-32.549v33.905H340.14v-87.783h59.673v19.233H361.715z"/>
	<path fill="#E6007E" d="M451.471,214.017l-4.068-13.068h-27.001l-4.315,13.068h-22.562l31.932-87.783h16.645l31.933,87.783H451.471
		z M434.333,159.523l-7.891,23.425h15.288L434.333,159.523z"/>
</g>
<g>
	<path fill="#E6007E" d="M151.012,438.815v-42.042l-12.452,21.699h-13.809l-12.452-21.699v42.042H90.723v-87.783h21.206
		l19.727,38.713l19.727-38.713h21.206v87.783H151.012z"/>
	<path fill="#E6007E" d="M236.331,438.815l-4.068-13.068h-27.001l-4.315,13.068h-22.562l31.932-87.783h16.645l31.933,87.783H236.331
		z M219.193,384.321l-7.891,23.425h15.288L219.193,384.321z"/>
	<path fill="#E6007E" d="M264.688,438.815v-87.783h21.575v87.783H264.688z"/>
	<path fill="#E6007E" d="M326.086,439.556c-13.439,0-24.412-2.467-33.289-11.59l13.809-13.809
		c4.562,4.562,12.576,6.164,19.604,6.164c8.508,0,12.576-2.835,12.576-7.891c0-2.096-0.494-3.821-1.727-5.178
		c-1.109-1.109-2.959-1.973-5.795-2.343l-10.604-1.479c-7.767-1.109-13.685-3.698-17.63-7.768
		c-4.069-4.191-6.042-10.109-6.042-17.63c0-16.028,12.084-27.741,32.057-27.741c12.576,0,22.068,2.959,29.59,10.48l-13.562,13.562
		c-5.548-5.548-12.822-5.178-16.645-5.178c-7.52,0-10.603,4.315-10.603,8.137c0,1.11,0.37,2.713,1.726,4.069
		c1.109,1.109,2.959,2.219,6.041,2.589l10.604,1.479c7.891,1.109,13.562,3.575,17.262,7.273c4.684,4.562,6.533,11.097,6.533,19.234
		C359.99,429.815,344.58,439.556,326.086,439.556z"/>
</g>
<g>
	<path fill="#E6007E" d="M90.188,326.507v-16.768l33.658-51.782H91.668v-19.233h58.07v16.768l-33.782,51.783h33.782v19.232H90.188z"
		/>
	<path fill="#E6007E" d="M159.232,326.507v-87.783h59.673v19.233h-38.098v14.672h32.549v19.233h-32.549v15.412h38.098v19.232
		H159.232z"/>
	<path fill="#E6007E" d="M275.618,326.507l-15.535-32.672h-7.274v32.672h-21.575v-87.783h34.768c19.48,0,29.96,13.809,29.96,28.233
		c0,11.96-7.397,19.481-14.302,22.932l18.986,36.617H275.618z M265.015,258.081h-12.206v17.754h12.206
		c5.918,0,9.37-4.315,9.37-8.877S270.933,258.081,265.015,258.081z"/>
	<path fill="#E6007E" d="M363.771,317.384c-6.411,6.41-13.809,9.863-24.534,9.863c-10.727,0-18.124-3.453-24.535-9.863
		c-9.247-9.246-8.877-21.576-8.877-34.768c0-13.192-0.37-25.521,8.877-34.769c6.411-6.41,13.809-9.863,24.535-9.863
		c10.726,0,18.123,3.453,24.534,9.863c9.247,9.247,8.877,21.576,8.877,34.769C372.647,295.808,373.018,308.138,363.771,317.384z
		 M347.866,261.04c-1.603-2.096-4.685-3.821-8.63-3.821s-7.028,1.726-8.631,3.821c-1.973,2.589-3.205,5.548-3.205,21.576
		c0,16.028,1.232,18.864,3.205,21.452c1.603,2.098,4.686,3.945,8.631,3.945s7.027-1.848,8.63-3.945
		c1.973-2.588,3.206-5.424,3.206-21.452C351.072,266.587,349.839,263.628,347.866,261.04z"/>
</g>
<polygon fill="#E6007E" points="379.648,439.718 408.126,439.718 436.602,397.003 408.126,354.292 379.648,354.292 408.126,397.003 
	"/>
<polygon fill="#E6007E" points="414.131,439.718 442.607,439.718 471.084,397.003 442.607,354.292 414.131,354.292 442.607,397.003 
	"/>
<polygon fill="#E6007E" points="425.484,308.698 425.484,293.287 458.033,293.287 458.033,274.054 425.484,274.054 425.484,259.382 
	463.581,259.382 463.581,240.147 443.464,240.147 443.464,222.416 423.201,222.416 423.201,240.147 403.908,240.147 
	403.908,327.933 463.581,327.933 463.581,308.698 "/>
</svg>
